<svg viewBox="0 0 24 24" fill="none" xmlns="http://www.w3.org/2000/svg" stroke="#000000" stroke-width="0.00024000000000000003"><g id="SVGRepo_bgCarrier" stroke-width="0"></g><g id="SVGRepo_tracerCarrier" stroke-linecap="round" stroke-linejoin="round"></g><g id="SVGRepo_iconCarrier"> <path fill-rule="evenodd" clip-rule="evenodd" d="M8 1C11.866 1 15 2.56689 15 4.5V6C15 6.55228 14.5523 7 14 7H13C11.7295 7.64819 9.95868 8 8 8C6.04132 8 4.27051 7.64819 3 7V8.5C3 9.22569 4.71803 9.83109 7.00053 9.97002C7.55179 10.0036 8 10.4477 8 11C8 11.5523 7.55166 12.0038 7.0005 11.9686C5.44274 11.8692 4.05039 11.5359 3 11V12.5C3 13.2257 4.71803 13.8311 7.00053 13.97C7.55179 14.0036 8 14.4477 8 15C8 15.5523 7.55132 16.004 7.00044 15.9646C3.60793 15.7221 1 14.2634 1 12.5V4.5C1 2.56689 4.134 1 8 1ZM3 4.5C3 3.67163 5.23859 3 8 3C10.7614 3 13 3.67163 13 4.5C13 5.32837 10.7614 6 8 6C5.23859 6 3 5.32837 3 4.5Z" fill="#2C2F30"></path> <path fill-rule="evenodd" clip-rule="evenodd" d="M23 11.5C23 9.567 19.866 8 16 8C12.134 8 9 9.567 9 11.5V19.5C9 21.433 12.134 23 16 23C19.866 23 23 21.433 23 19.5V11.5ZM11 19.5C11 20.3284 13.2386 21 16 21C18.7614 21 21 20.3284 21 19.5V18C19.7295 18.6483 17.9587 19 16 19C14.0413 19 12.2705 18.6483 11 18V19.5ZM16 17C13.2386 17 11 16.3284 11 15.5V14C12.2705 14.6483 14.0413 15 16 15C17.9587 15 19.7295 14.6483 21 14V15.5C21 16.3284 18.7614 17 16 17ZM16 10C13.2386 10 11 10.6716 11 11.5C11 12.3284 13.2386 13 16 13C18.7614 13 21 12.3284 21 11.5C21 10.6716 18.7614 10 16 10Z" fill="#2C2F30"></path> </g></svg>